# xmcd
#
# Track frame offsets:
# 150
# 20792
# 42835
# 67065
# 88166
# 112548
# 132615
# 149501
# 171075
# 187318
# 201758
# 220950
# 243906
# 261926
#
# Disc length: 3759 seconds
#
# Revision: 1
# Processed by: cddbd v1.5.2PL0 Copyright (c) Steve Scherf et al.
# Submitted via: B's Recorder GOLD CDDB Client
#
DISCID=db0ead0e
DTITLE=KERUMANTU - KERUMANTU
DYEAR=1900
DGENRE=
TTITLE0=01 CHACHANI (チャチャニ)
TTITLE1=02 ANANAU (アナナウ)
TTITLE2=03 PARA TU AUSENCIA (故郷よ)
TTITLE3=04 ARCO IRIS (虹)
TTITLE4=05 EL CONDOR PASA (コンドルは飛んで行く)
TTITLE5=06 RECUERDOS (思い出)
TTITLE6=07 SURPANA (スルパナ)
TTITLE7=08 LLORANDO SE FUE (泣きながら-ランバダ-)
TTITLE8=09 LILIACHA (リリアチャ)
TTITLE9=10 TUCUMANOS (トゥクマンの人)
TTITLE10=11 TE VAS (別れ)
TTITLE11=12 LA SAYA (サヤ)
TTITLE12=13 EL HUMAHUAQUENO (花祭り)
TTITLE13=14 TRISTE AMANECER (寂しい夜明け)
EXTD=
EXTT0=
EXTT1=
EXTT2=
EXTT3=
EXTT4=
EXTT5=
EXTT6=
EXTT7=
EXTT8=
EXTT9=
EXTT10=
EXTT11=
EXTT12=
EXTT13=
PLAYORDER=
